<?xml version="1.0" standalone="no"?>
<!DOCTYPE svg PUBLIC "-//W3C//DTD SVG 20010904//EN"
 "http://www.w3.org/TR/2001/REC-SVG-20010904/DTD/svg10.dtd">
<svg version="1.0" xmlns="http://www.w3.org/2000/svg"
 width="1687.000000pt" height="1687.000000pt" viewBox="0 0 1687.000000 1687.000000"
 preserveAspectRatio="xMidYMid meet">
<metadata>
Created by potrace 1.14, written by Peter Selinger 2001-2017
</metadata>
<g transform="translate(0.000000,1687.000000) scale(0.100000,-0.100000)"
fill="#000000" stroke="none">
<path d="M8215 16071 c-55 -22 -206 -78 -335 -126 -465 -173 -717 -295 -959
-462 l-94 -65 6 64 c20 202 20 203 3 236 -13 26 -23 32 -49 32 -48 0 -91 -32
-249 -182 -245 -234 -337 -296 -420 -284 -24 4 -88 9 -144 12 -84 5 -116 2
-185 -15 -194 -49 -366 -166 -494 -337 -60 -79 -131 -211 -141 -262 -6 -28
-11 -32 -52 -38 -77 -12 -181 -10 -297 3 -157 19 -282 18 -349 -1 -45 -13
-170 -93 -196 -125 -3 -3 -34 -31 -70 -61 -36 -30 -72 -62 -80 -70 -8 -8 -33
-30 -55 -49 -200 -168 -1068 -1030 -1113 -1105 -19 -30 -60 -128 -91 -218 -32
-90 -70 -186 -84 -215 -62 -122 -295 -365 -672 -703 -185 -166 -426 -429 -522
-570 -100 -146 -211 -375 -279 -575 -76 -222 -165 -625 -218 -985 -3 -19 -17
-116 -31 -215 -34 -234 -61 -405 -85 -535 -11 -58 -22 -118 -24 -135 -4 -21 4
-46 31 -94 66 -119 230 -455 291 -596 162 -378 286 -811 327 -1132 13 -105
-47 -160 -147 -135 -23 6 -44 10 -46 8 -5 -6 -3 -390 3 -431 12 -87 38 -188
62 -247 64 -159 395 -914 556 -1268 153 -337 354 -852 479 -1224 33 -99 33
-100 68 -104 51 -5 93 -28 140 -75 60 -61 96 -143 120 -276 87 -470 288 -826
574 -1015 44 -30 99 -62 121 -71 22 -10 49 -22 60 -26 108 -47 146 -52 390
-56 132 -2 274 -8 315 -14 140 -20 245 -68 350 -158 80 -68 141 -108 233 -151
178 -84 341 -122 533 -125 l132 -2 73 -40 c41 -22 182 -96 314 -163 205 -105
451 -236 599 -319 21 -12 90 -56 153 -97 62 -40 125 -77 138 -80 35 -9 91 13
114 44 11 15 23 23 28 19 4 -5 9 -56 10 -114 0 -57 4 -107 7 -110 3 -4 88 4
188 16 208 26 216 27 318 36 41 4 86 8 100 10 14 2 61 6 105 9 44 4 114 9 155
12 207 16 659 10 850 -11 189 -20 424 -65 554 -105 44 -14 65 -16 85 -9 45 18
144 35 208 38 176 7 361 -54 627 -208 83 -48 94 -52 176 -58 80 -5 89 -4 109
16 25 25 26 44 6 100 l-14 41 57 29 c32 16 96 40 142 54 124 38 435 100 463
94 36 -10 91 -57 133 -115 74 -103 159 -172 211 -172 16 0 18 11 17 117 -2
137 12 196 55 235 48 43 98 51 259 44 l143 -7 -3 113 c-3 179 0 189 100 288
47 47 149 155 227 240 189 206 269 279 385 352 l55 35 115 -128 c63 -70 118
-128 123 -128 4 -1 7 23 7 52 0 110 -53 221 -156 329 -71 75 -96 120 -77 139
18 18 280 100 339 106 72 7 115 -5 184 -53 27 -19 51 -34 53 -34 2 0 -9 25
-25 56 -35 71 -35 98 0 131 53 51 107 67 232 70 158 3 192 10 239 43 69 50
116 158 122 282 2 47 8 60 48 108 25 30 49 57 52 60 19 18 277 335 349 430
318 422 594 903 847 1480 48 108 213 518 213 527 0 7 -118 -83 -185 -141 -131
-114 -249 -248 -350 -401 -40 -60 -83 -120 -94 -132 -52 -55 -115 -63 -173
-22 l-28 20 -9 -23 c-5 -13 -26 -80 -48 -150 -21 -70 -42 -128 -46 -128 -5 0
-6 3 -3 8 7 11 19 222 12 222 -3 0 -117 -87 -253 -193 -385 -300 -710 -546
-1208 -912 -475 -349 -1289 -900 -1428 -966 -74 -35 -144 -39 -197 -11 -30 16
-102 102 -113 135 -2 6 -49 -28 -105 -76 -104 -88 -134 -104 -175 -93 -40 10
-61 89 -38 148 l9 23 -127 0 c-69 -1 -134 -5 -144 -9 -9 -5 -33 -42 -53 -82
-19 -41 -42 -74 -49 -74 -8 0 -26 24 -42 52 -18 34 -35 54 -49 56 -12 2 -21
-3 -21 -10 0 -7 -8 -65 -19 -128 -15 -98 -19 -109 -24 -78 -8 44 -26 68 -51
68 -25 0 -81 -58 -105 -108 l-19 -41 -62 92 c-62 93 -199 249 -187 212 4 -11
10 -24 14 -30 13 -18 39 -109 43 -150 8 -74 -12 -84 -62 -33 l-31 32 -1 -35
c-1 -19 -3 -45 -4 -59 -2 -14 -6 -47 -8 -75 -4 -44 -8 -51 -35 -62 -16 -7 -67
-48 -112 -93 -45 -44 -94 -86 -108 -94 -15 -8 -58 -16 -97 -20 -243 -22 -284
-26 -445 -52 -118 -18 -162 -27 -325 -66 l-130 -31 -190 46 c-251 61 -607 131
-820 162 -22 3 -67 10 -100 15 -33 5 -82 11 -110 15 -27 3 -57 8 -65 10 -8 2
-51 6 -95 10 -44 4 -89 8 -100 10 -28 6 -179 19 -330 30 -454 32 -821 150
-1239 398 l-108 65 38 12 c52 17 126 94 142 147 13 43 9 100 -9 117 -6 6 -9 5
-9 -5 0 -26 -59 -77 -112 -97 -29 -11 -102 -30 -162 -41 l-110 -22 -120 119
c-67 65 -164 159 -216 208 -52 49 -133 126 -179 169 -47 44 -94 89 -106 100
-44 41 -251 233 -280 259 -29 27 -111 103 -440 411 -388 362 -964 956 -1146
1181 -99 122 -202 313 -298 554 -23 58 -46 114 -51 125 -5 11 -43 103 -84 205
-70 174 -141 339 -151 348 -2 3 -23 -12 -45 -32 -44 -40 -68 -44 -110 -19 -34
20 -89 123 -97 180 -6 48 10 104 38 129 29 26 90 24 128 -4 17 -12 32 -22 34
-22 2 0 -6 69 -19 153 -13 83 -26 175 -29 202 -3 28 -12 91 -20 140 -8 50 -17
113 -20 140 -4 28 -13 91 -20 140 -8 50 -17 113 -20 140 -4 28 -11 79 -16 115
-13 80 -10 161 8 220 7 25 47 115 88 201 77 160 98 230 108 359 3 36 19 189
36 340 17 151 33 298 36 325 3 28 8 66 10 85 2 19 7 58 9 85 5 43 20 184 31
280 2 17 6 55 10 85 3 30 8 75 10 100 3 25 7 63 9 85 30 280 42 366 76 532
137 667 429 1252 913 1826 140 166 182 212 407 437 169 169 257 254 426 409
32 30 88 82 124 115 36 34 95 88 131 121 36 33 107 98 157 145 114 104 214
176 368 265 66 37 250 145 409 240 160 95 317 188 350 208 582 345 963 522
1393 647 153 45 427 102 572 120 52 6 109 13 125 15 57 9 290 19 410 18 461
-3 443 -4 526 18 70 18 126 65 161 137 33 66 33 67 35 237 2 93 1 176 -2 182
-3 10 -11 10 -32 2 -82 -31 -165 -2 -297 104 -122 98 -148 116 -209 139 -79
30 -84 30 -192 -11z m-6028 -9747 c40 -43 53 -67 128 -244 61 -144 100 -224
136 -278 l22 -34 -60 30 c-115 58 -156 114 -169 227 -9 86 -35 163 -83 245
-22 40 -41 76 -41 81 0 21 35 7 67 -27z m-211 8 c7 -4 19 -29 28 -57 8 -27 29
-94 46 -148 16 -53 30 -100 30 -102 0 -3 -30 32 -67 77 -36 46 -79 97 -95 113
-15 17 -28 40 -28 50 1 31 37 70 70 74 3 0 10 -3 16 -7z"/>
<path d="M10575 15611 c-113 -5 -147 -10 -170 -25 -42 -26 -101 -92 -116 -129
-7 -18 -13 -33 -14 -34 -1 -2 -26 7 -56 19 -49 20 -70 22 -232 21 -192 -2
-256 -13 -327 -58 -87 -55 -141 -155 -141 -259 0 -107 45 -190 161 -300 225
-211 549 -328 972 -351 l87 -5 166 -95 c377 -217 896 -553 1285 -830 85 -61
234 -167 330 -235 95 -69 197 -141 225 -161 27 -19 131 -94 230 -165 326 -235
515 -365 546 -376 37 -13 126 -5 188 17 24 9 93 41 152 71 60 31 112 53 117
50 4 -3 5 -31 2 -63 -12 -108 2 -248 40 -398 32 -130 160 -465 207 -547 49
-83 131 -167 231 -236 48 -33 100 -71 116 -84 38 -31 106 -122 134 -179 24
-51 53 -129 47 -129 -2 0 1 -15 6 -32 5 -18 10 -82 10 -143 0 -105 -14 -198
-53 -334 l-13 -43 73 -143 c84 -162 172 -307 258 -421 73 -98 235 -263 291
-298 63 -38 74 -62 77 -158 6 -183 94 -235 199 -118 l39 42 -7 -63 c-3 -35
-10 -91 -15 -124 -5 -33 -12 -94 -16 -135 -3 -41 -8 -77 -9 -80 -7 -12 -20
-245 -20 -360 1 -178 24 -360 47 -360 4 0 9 26 9 58 1 60 2 66 19 227 6 55 13
125 16 155 3 30 7 66 9 80 2 14 7 45 10 70 28 217 100 569 145 715 32 102 84
253 92 268 21 40 -55 8 -99 -43 -13 -14 -42 -55 -64 -91 -42 -66 -80 -99 -116
-99 -17 0 -18 12 -19 183 0 172 -11 465 -18 504 -2 10 -7 58 -11 107 -4 49 -8
101 -10 115 -2 14 -6 55 -10 91 -3 36 -17 153 -31 260 -13 107 -26 215 -29
240 -3 25 -8 59 -10 75 -7 45 -33 252 -40 315 -15 143 24 72 -545 980 -81 129
-340 543 -575 920 -235 377 -453 714 -483 750 -532 618 -1288 1071 -2176 1305
-226 59 -305 67 -656 69 -173 1 -378 0 -455 -3z"/>
<path d="M7828 11435 c-1 -1 -59 -5 -128 -9 -69 -3 -134 -8 -145 -10 -18 -3
-45 -8 -140 -22 -211 -33 -508 -153 -709 -289 -390 -261 -653 -617 -742 -1000
-29 -123 -27 -393 3 -497 43 -146 103 -250 202 -349 126 -125 366 -254 511
-275 19 -3 41 -7 49 -10 18 -6 200 -5 253 1 241 27 459 105 623 224 118 85
249 243 291 352 9 24 20 49 25 54 14 20 49 148 49 181 0 42 -18 51 -58 30 -36
-19 -58 -63 -67 -136 -10 -80 -37 -125 -131 -216 -124 -123 -267 -212 -434
-274 -206 -76 -339 -90 -532 -55 -47 9 -163 52 -246 92 -113 55 -182 119 -223
207 -34 74 -44 132 -41 251 5 274 129 537 376 794 502 521 1242 723 2056 561
30 -6 66 -14 80 -16 291 -57 801 -236 1234 -434 150 -68 344 -159 355 -166 2
-2 -17 -29 -42 -62 -175 -227 -641 -1044 -800 -1402 -8 -19 -28 -64 -44 -100
-16 -36 -42 -96 -58 -133 l-29 -68 -60 6 c-34 3 -72 8 -86 9 -14 2 -46 6 -70
10 -25 3 -79 8 -120 12 -41 3 -91 8 -110 10 -79 10 -359 12 -397 4 -22 -5 -57
-12 -79 -14 -54 -7 -182 -50 -271 -91 -205 -95 -362 -252 -461 -462 -33 -70
-32 -106 4 -129 31 -21 50 -9 110 66 122 152 321 254 584 300 160 29 238 33
559 31 162 -1 296 -3 298 -5 10 -10 -235 -508 -339 -687 -155 -266 -359 -568
-490 -724 -9 -11 -43 -52 -75 -90 -116 -140 -358 -389 -488 -502 -276 -238
-619 -431 -950 -532 -109 -34 -128 -39 -165 -47 -19 -4 -37 -8 -40 -9 -50 -11
-70 -15 -95 -20 -147 -26 -291 -39 -430 -39 -101 0 -306 12 -326 18 -8 3 -34
7 -59 10 -188 23 -417 89 -616 176 -518 229 -856 559 -1028 1007 -30 77 -60
177 -72 238 -2 11 -6 31 -9 45 -15 75 -17 107 -16 235 1 77 3 154 5 170 22
185 46 293 92 408 20 51 42 99 48 107 6 8 20 31 30 50 73 134 207 270 432 439
92 69 170 132 172 139 5 15 -42 11 -108 -9 -229 -68 -515 -318 -634 -554 -72
-144 -132 -384 -164 -660 -14 -121 -6 -451 12 -537 3 -13 8 -39 10 -58 10 -68
56 -231 92 -322 68 -172 172 -345 279 -464 89 -99 182 -187 296 -279 66 -53
258 -168 374 -225 181 -89 353 -146 585 -196 19 -4 37 -8 40 -9 3 -1 30 -5 60
-9 30 -4 63 -9 72 -11 130 -24 654 -28 813 -7 55 8 116 16 135 18 129 15 497
108 570 144 8 4 42 18 75 30 246 93 501 239 715 408 164 131 469 448 611 637
257 341 534 890 775 1540 54 146 57 151 80 148 280 -29 1000 -23 1228 11 139
21 211 44 247 77 25 23 28 31 19 48 -14 28 -65 36 -200 32 -463 -14 -861 -3
-1100 29 -41 6 -87 11 -102 12 -16 1 -28 6 -28 10 0 8 150 386 175 444 8 16
29 66 48 110 19 43 45 102 57 129 13 28 34 75 47 105 62 138 228 460 264 512
11 14 19 29 19 33 0 23 256 384 279 393 4 1 108 -46 232 -106 294 -143 324
-157 459 -209 117 -45 377 -133 505 -171 354 -104 675 -127 850 -60 271 102
406 271 393 490 -5 95 -53 70 -122 -62 -44 -82 -91 -131 -166 -170 -107 -54
-174 -65 -415 -64 -217 0 -356 23 -650 108 -180 52 -466 145 -510 166 -11 5
-65 27 -120 49 -55 21 -131 54 -170 72 -38 18 -72 33 -75 34 -21 5 -100 45
-100 51 0 10 39 43 95 79 121 78 261 89 324 26 50 -50 104 -31 97 33 -2 17 -4
39 -5 48 -2 32 -60 86 -109 102 -99 33 -235 23 -332 -24 -83 -40 -97 -50 -169
-116 l-71 -66 -118 70 c-330 196 -613 334 -942 462 -74 29 -144 56 -155 61
-49 22 -423 141 -545 173 -74 20 -148 40 -165 46 -16 5 -46 12 -65 15 -19 3
-42 8 -50 10 -22 6 -67 14 -145 25 -123 18 -138 19 -265 25 -69 4 -130 8 -137
10 -6 2 -13 2 -15 0z"/>
</g>
</svg>
